<svg width="590" height="120" fill="none" xmlns="http://www.w3.org/2000/svg"><g clip-path="url(#clip0_267_523)" fill="#F90"><path d="M30.117 114.578c.856 1.366 2.946 2.318 6.264 2.849v.083H0v-.083c2.352-.373 4.215-.911 5.58-1.607 1.366-.697 2.436-1.752 3.215-3.173.773-1.421 1.435-3.443 1.966-6.064l20.005-94.132c.586-2.676.786-4.725.6-6.146-.186-1.421-.814-2.463-1.89-3.132-1.07-.669-2.704-1.193-4.898-1.566v-.083h36.388v.083c-2.36.373-4.215.91-5.58 1.608-1.367.696-2.436 1.752-3.215 3.173-.78 1.42-1.463 3.442-2.05 6.063l-19.997 94.132c-.855 3.967-.855 6.629 0 7.988l-.007.007zm.325-56.744h71.485v.483H30.359l.082-.483zm70.002 54.895c.131 1.421.752 2.463 1.848 3.132 1.097.669 2.718 1.193 4.857 1.566v.083H70.844v-.083c2.359-.373 4.2-.911 5.54-1.607 1.337-.697 2.406-1.752 3.214-3.173.8-1.421 1.469-3.443 2.007-6.064l20.08-94.132c.587-2.676.773-4.725.559-6.146-.214-1.421-.855-2.463-1.924-3.132-1.07-.669-2.704-1.193-4.898-1.566v-.083h36.388v.083c-2.36.373-4.215.91-5.581 1.608-1.366.696-2.421 1.752-3.173 3.173-.752 1.42-1.421 3.442-2.007 6.063l-19.998 94.132c-.538 2.677-.738 4.725-.6 6.146h-.007zM212.366 28.993h-.083c-.538-6.857-1.593-12.127-3.173-15.824-1.58-3.698-4.339-6.333-8.271-7.913-3.939-1.58-9.678-2.559-17.231-2.931L169.956 1.6l-11.968 56.386 16.79-.642c4.767-.159 8.554-.807 11.368-1.924 2.815-1.118 5.063-2.773 6.747-4.94 1.683-2.165 3.2-4.994 4.539-8.47h.082l-7.229 34.214h-.083c0-3.91-.352-7.118-1.041-9.636-.697-2.518-2.159-4.401-4.381-5.664-2.221-1.255-5.608-1.966-10.161-2.124l-16.624-.642-12.527 59.276 15.9-.642c6.105-.324 11.375-1.069 15.824-2.248 4.443-1.18 8.313-2.905 11.61-5.181 3.29-2.276 6.194-5.222 8.712-8.836 2.518-3.615 4.898-7.968 7.147-13.052h.083l-7.954 30.042h-79.273v-.083c2.359-.373 4.201-.911 5.539-1.607 1.338-.697 2.393-1.753 3.173-3.174.773-1.421 1.435-3.442 1.966-6.063l20.074-94.139c.586-2.676.786-4.725.6-6.146-.187-1.421-.814-2.463-1.89-3.132-1.07-.669-2.705-1.193-4.898-1.566v-.083h74.376l-4.098 27.469h.007zM205.696 117.51l.082-.083c2.359-.373 4.229-.911 5.622-1.607 1.394-.697 2.463-1.752 3.215-3.173.752-1.421 1.393-3.443 1.924-6.064l19.757-93.007c.641-2.89.896-5.14.765-6.747-.131-1.607-.738-2.787-1.807-3.532-1.069-.752-2.704-1.31-4.898-1.69v-.083h36.388v.083c-2.359.373-4.215.91-5.581 1.608-1.365.696-2.435 1.752-3.214 3.173-.78 1.42-1.462 3.442-2.049 6.063l-22.246 104.976 14.776-.724c5.408-.269 10.188-1.083 14.334-2.449 4.153-1.366 7.802-3.304 10.961-5.822 3.159-2.518 5.953-5.581 8.395-9.195 2.435-3.615 4.642-7.754 6.629-12.41h.159l-8.354 30.683h-74.858zM292.688 117.51l.083-.083c2.359-.373 4.228-.911 5.622-1.607 1.393-.697 2.462-1.752 3.214-3.173.752-1.421 1.394-3.443 1.925-6.064l19.756-93.007c.642-2.89.897-5.14.766-6.747-.131-1.607-.738-2.787-1.807-3.532-1.07-.752-2.705-1.31-4.898-1.69v-.083h36.388v.083c-2.36.373-4.215.91-5.581 1.608-1.366.696-2.435 1.752-3.215 3.173-.779 1.42-1.462 3.442-2.048 6.063l-22.247 104.976 14.776-.724c5.408-.269 10.189-1.083 14.334-2.449 4.153-1.366 7.802-3.304 10.961-5.822 3.16-2.518 5.954-5.581 8.395-9.195 2.436-3.615 4.643-7.754 6.63-12.41h.158l-8.353 30.683h-74.859zM423.042 115.42c-5.994-2.194-11.271-5.45-15.824-9.761-4.553-4.312-8.085-9.61-10.603-15.9-2.517-6.292-3.773-13.535-3.773-21.73 0-9.747 1.58-18.714 4.739-26.91 3.159-8.194 7.554-15.34 13.176-21.445s12.182-10.844 19.68-14.218c7.498-3.373 15.528-5.063 24.095-5.063 6.905 0 13.362 1.097 19.356 3.29 5.995 2.194 11.258 5.45 15.783 9.761 4.525 4.312 8.071 9.61 10.644 15.9 2.573 6.292 3.856 13.535 3.856 21.73 0 9.692-1.58 18.645-4.739 26.868-3.159 8.223-7.547 15.37-13.175 21.446-5.622 6.078-12.182 10.817-19.681 14.217-7.498 3.401-15.527 5.098-24.095 5.098-6.96 0-13.438-1.097-19.439-3.29v.007zm33.815-2.973c5.139-3.912 9.719-9.382 13.734-16.425 4.015-7.043 7.174-15.245 9.478-24.62 2.304-9.367 3.456-19.466 3.456-30.282 0-12.962-2.449-22.916-7.347-29.876C471.281 4.284 464.707.8 456.457.8c-6.319 0-12.1 2.221-17.349 6.664-5.25 4.442-9.789 10.402-13.617 17.873-3.829 7.47-6.788 15.769-8.878 24.902a124.011 124.011 0 00-3.132 27.751c0 12.962 2.435 22.916 7.312 29.876 4.87 6.96 11.458 10.444 19.757 10.444 5.732 0 11.161-1.952 16.307-5.863zM551.396 117.186c-1.877-1.877-2.815-4.126-2.815-6.747 0-2.621.966-4.953 2.891-6.829 1.924-1.876 4.283-2.814 7.07-2.814s5.05.924 6.947 2.773c1.897 1.848 2.849 4.111 2.849 6.787 0 2.677-.98 4.884-2.932 6.788-1.952 1.897-4.298 2.849-7.029 2.849-2.732 0-5.112-.938-6.988-2.814l.007.007zM587.342 2.649c1.738 1.766 2.607 4.366 2.607 7.788 0 2.463-.682 5.98-2.048 10.56-1.366 4.581-3.118 9.72-5.264 15.425a568.277 568.277 0 01-6.905 17.473L563.923 82.73h-.083l1.366-29.8c.427-6.477.828-12.796 1.207-18.956a346.84 346.84 0 011.607-18.39c.428-3.587 1.166-6.519 2.208-8.795 1.041-2.277 2.393-3.974 4.056-5.098C575.939.566 577.871 0 580.064 0c3.105 0 5.526.883 7.271 2.649h.007z"/></g><defs><clipPath id="clip0_267_523"><path fill="#fff" d="M0 0h589.949v120H0z"/></clipPath></defs></svg>