<svg width="24" height="24" fill="none" xmlns="http://www.w3.org/2000/svg"><path fill-rule="evenodd" clip-rule="evenodd" d="M12 0C8.742 0 8.334.014 7.055.07 5.78.126 4.903.332 4.144.627A5.858 5.858 0 002.016 2.01a5.866 5.866 0 00-1.388 2.12C.333 4.892.127 5.762.07 7.034.014 8.317 0 8.724 0 11.975c0 3.25.014 3.657.07 4.934.057 1.272.263 2.147.558 2.905.31.79.717 1.46 1.388 2.123a5.865 5.865 0 002.123 1.38c.764.295 1.636.5 2.911.557 1.28.056 1.688.07 4.945.07 3.258 0 3.666-.014 4.946-.07 1.275-.056 2.151-.262 2.91-.557a5.865 5.865 0 002.124-1.38 5.852 5.852 0 001.383-2.119c.295-.762.501-1.632.558-2.904.056-1.277.07-1.684.07-4.935 0-3.25-.014-3.658-.07-4.935-.057-1.272-.263-2.147-.558-2.904a5.607 5.607 0 00-1.374-2.129 5.867 5.867 0 00-2.123-1.38c-.764-.294-1.636-.5-2.911-.556C15.666.014 15.258 0 12 0zm0 5.823c-3.403 0-6.164 2.756-6.164 6.151 0 3.396 2.76 6.151 6.164 6.151 3.403 0 6.164-2.755 6.164-6.15 0-3.396-2.76-6.152-6.164-6.152zm0 10.141a3.995 3.995 0 01-3.998-3.99c0-2.203 1.79-3.99 3.998-3.99a3.995 3.995 0 013.998 3.99c0 2.204-1.79 3.99-3.998 3.99zm6.408-8.948c.792 0 1.439-.64 1.439-1.436a1.44 1.44 0 00-1.44-1.436c-.791 0-1.438.641-1.438 1.436 0 .79.642 1.436 1.439 1.436z" fill="#fff"/></svg>