<svg width="1320" height="120" fill="none" xmlns="http://www.w3.org/2000/svg"><path d="M1.698 43.103C.568 42.028 0 40.656 0 38.986c0-2.045.818-3.722 2.46-5.046 1.643-1.317 4.29-2.114 7.95-2.377l16.142-1.372v.083L15.497 40.282c-2.204 1.615-3.971 2.758-5.288 3.43-1.317.673-2.675 1.012-4.075 1.012-1.83 0-3.306-.533-4.436-1.614v-.007zm12.988-32c1.615.832 3.23 2.544 4.845 5.122l7.347 11.942v.083L11.22 23.33c-2.634-1.02-4.45-2.163-5.448-3.432-.998-1.261-1.49-2.592-1.49-3.992 0-1.504.527-2.89 1.574-4.158 1.046-1.262 2.515-1.9 4.4-1.9 1.345 0 2.828.416 4.436 1.255h-.007zm5.046 46.118c-1.102-1.185-1.656-2.634-1.656-4.36 0-.7.09-1.518.284-2.46.187-.943.686-2.135 1.49-3.59l8.393-15.089h.083l2.177 14.61c.159 1.13.242 2.087.242 2.863v2.135c0 2.37-.59 4.234-1.774 5.607-1.185 1.372-2.828 2.058-4.921 2.058-1.774 0-3.216-.59-4.318-1.774zM37.246 1.74c1.102 1.157 1.657 2.599 1.657 4.318 0 .7-.097 1.517-.285 2.46-.187.943-.686 2.142-1.49 3.59l-8.393 15.088h-.083l-2.176-14.61c-.215-1.13-.312-2.1-.284-2.904.027-.804.041-1.504.041-2.1 0-2.37.59-4.22 1.774-5.565C29.193.672 30.835 0 32.928 0c1.775 0 3.216.575 4.318 1.733v.007zM51.13 47.17c-1.047 1.268-2.489 1.9-4.318 1.9-1.345 0-2.856-.417-4.52-1.248-1.67-.832-3.257-2.544-4.76-5.122l-7.347-12.108v-.084l15.573 5.08c2.634.86 4.45 1.948 5.448 3.272.998 1.317 1.49 2.703 1.49 4.159 0 1.455-.527 2.89-1.573 4.158l.007-.007zM55.322 15.9c1.157 1.075 1.732 2.447 1.732 4.117 0 1.99-.838 3.66-2.502 5.004-1.67 1.345-4.331 2.128-7.99 2.343l-16.219 1.046v-.083l11.138-9.606c2.1-1.83 3.833-3.029 5.205-3.59a10.774 10.774 0 014.158-.846c1.83 0 3.32.541 4.478 1.615zM136.544 94.91l12.51-67.547c1.185-6.404 1.816-11.325 1.899-14.77.083-3.444-.555-5.89-1.899-7.346-1.345-1.456-3.549-2.42-6.619-2.904V2.26h24.611v.083c-3.063.485-5.475 1.483-7.222 2.987-1.746 1.504-3.23 3.985-4.436 7.423-1.212 3.444-2.488 8.31-3.832 14.61l-20.016 91.431h-6.134L74.728 11.873 58.912 92.977c-.915 5.004-1.532 9.107-1.858 12.309-.326 3.202-.256 5.704.201 7.506.458 1.802 1.359 3.147 2.703 4.034 1.345.887 3.147 1.518 5.406 1.899v.083H40.753v-.083c3.119-.485 5.551-1.476 7.305-2.987 1.747-1.504 3.23-4.034 4.436-7.59 1.213-3.548 2.543-8.608 3.992-15.171l16.468-74.25c.755-3.23.956-5.947.602-8.15-.353-2.205-1.157-3.979-2.418-5.33-1.269-1.345-2.918-2.315-4.963-2.904V2.26h26.469l43.9 92.644v.007zM242.987 29.865h-.083c-.541-6.89-1.601-12.184-3.188-15.9-1.587-3.714-4.36-6.362-8.31-7.949-3.958-1.587-9.724-2.571-17.313-2.946l-13.717-.727-12.024 56.652 16.869-.645c4.789-.159 8.594-.81 11.422-1.933 2.828-1.123 5.087-2.786 6.778-4.963 1.692-2.176 3.216-5.018 4.561-8.51h.083l-7.263 34.376h-.084c0-3.93-.353-7.152-1.046-9.682-.7-2.53-2.163-4.422-4.401-5.69-2.232-1.262-5.635-1.976-10.209-2.135l-16.704-.645-12.586 59.557 15.976-.645c6.133-.326 11.429-1.074 15.899-2.259 4.463-1.185 8.352-2.918 11.664-5.205 3.306-2.287 6.224-5.247 8.754-8.879 2.53-3.631 4.921-8.005 7.18-13.113h.084l-7.992 30.184h-79.649v-.083c2.371-.375 4.221-.915 5.566-1.615 1.344-.7 2.405-1.761 3.188-3.188.776-1.428 1.442-3.459 1.975-6.092l20.176-94.578c.589-2.69.79-4.748.603-6.176-.187-1.427-.818-2.474-1.899-3.146-1.074-.673-2.717-1.2-4.921-1.574v-.083h74.728l-4.117 27.599v-.007zM263.406 9.287c-.915-2.37-2.003-4.047-3.272-5.045-1.268-.998-2.73-1.629-4.401-1.9V2.26h39.866v.084c-2.744.325-4.879 1.116-6.418 2.377-1.531 1.268-2.543 3.105-3.028 5.53-.485 2.427-.569 5.566-.243 9.44l6.536 76.745h-.083l35.347-73.681c2.37-4.845 3.819-8.636 4.359-11.38.534-2.745.215-4.79-.97-6.134-1.185-1.345-3.202-2.315-6.051-2.904v-.083h37.205v.083c-2.474.374-4.332 1.06-5.565 2.058-1.241.998-2.003 2.69-2.301 5.087-.299 2.399-.257 5.933.117 10.612l5.49 76.342 35.021-72.71c2.585-5.38 4.193-9.538 4.845-12.47.644-2.931.346-5.045-.888-6.334-1.24-1.29-3.389-2.149-6.459-2.585v-.083h24.854v.083a17.154 17.154 0 00-5.891 2.218c-1.83 1.102-3.792 3.105-5.892 6.009-2.1 2.904-4.678 7.318-7.748 13.237l-49.147 95.147h-6.452l-9.364-105.959h2.502l-53.991 105.959h-6.21l-9.765-99.264c-.43-4.574-1.102-8.04-2.017-10.41l.014.014zM399.062 74.416l.084-.81h45.757l-.16.81h-45.681zM500.744 118.801L484.443 11.873h.243L465.64 94.349c-1.074 4.678-1.802 8.511-2.176 11.498-.375 2.987-.354 5.358.083 7.104.429 1.747 1.303 3.043 2.62 3.875 1.316.831 3.132 1.469 5.447 1.899v.083h-24.535v-.083c2.849-.589 5.177-1.615 6.979-3.064 1.802-1.455 3.376-3.832 4.72-7.138 1.345-3.306 2.8-8.006 4.36-14.084l19.773-76.745c.86-3.278 1.213-5.96 1.047-8.032-.159-2.073-.811-3.688-1.934-4.845-1.13-1.158-2.661-1.975-4.602-2.46v-.084h26.393l14.041 95.95h-.083l49.874-95.957h27.758v.084c-2.315.485-4.13 1.115-5.447 1.899-1.317.783-2.315 1.83-2.987 3.146-.673 1.317-1.227 3.133-1.657 5.448L568.93 108.23c-.375 2.419-.499 4.305-.361 5.649.132 1.345.742 2.37 1.816 3.063 1.074.701 2.745 1.29 5.004 1.775v.083H538.67v-.083c2.419-.485 4.331-1.061 5.731-1.733 1.401-.672 2.475-1.698 3.23-3.063.756-1.373 1.345-3.265 1.775-5.691l16.786-97.488h.159l-48.418 87.48-10.895 20.578h-6.294zM679.58 29.865h-.083c-.541-6.89-1.601-12.184-3.188-15.9-1.588-3.714-4.36-6.362-8.31-7.949-3.958-1.587-9.724-2.571-17.314-2.946l-13.716-.727-12.025 56.652 16.863-.645c4.789-.159 8.594-.81 11.422-1.933 2.828-1.123 5.08-2.786 6.778-4.963 1.698-2.176 3.216-5.018 4.561-8.51h.083l-7.264 34.376h-.083c0-3.93-.353-7.152-1.046-9.682-.7-2.53-2.17-4.422-4.401-5.69-2.232-1.262-5.635-1.976-10.209-2.135l-16.704-.645-12.586 59.557 15.976-.645c6.133-.326 11.428-1.074 15.899-2.259 4.463-1.185 8.351-2.918 11.664-5.205 3.306-2.287 6.224-5.247 8.754-8.879 2.53-3.631 4.921-8.005 7.18-13.113h.083l-7.991 30.184h-79.649v-.083c2.371-.375 4.221-.915 5.566-1.615 1.344-.7 2.405-1.761 3.188-3.188.776-1.428 1.442-3.459 1.975-6.092l20.176-94.578c.589-2.69.79-4.748.603-6.176-.187-1.427-.818-2.474-1.899-3.146-1.074-.673-2.717-1.2-4.921-1.574v-.083h74.728l-4.117 27.599.007-.007zM775.856 29.865h-.16c-.325-6.349-1.261-11.408-2.827-15.172-1.56-3.763-4.117-6.563-7.666-8.393-3.548-1.83-8.58-3.036-15.088-3.632l-3.632-.325-22.518 105.882c-.485 2.418-.603 4.304-.361 5.648.243 1.345 1.075 2.37 2.502 3.064 1.428.7 3.591 1.289 6.495 1.774v.083h-40.754v-.083c2.904-.374 5.192-.929 6.862-1.657 1.67-.727 2.918-1.788 3.756-3.188.832-1.4 1.518-3.278 2.059-5.648L726.945 2.35l-3.791.325c-7.049.59-12.808 1.927-17.272 3.992-4.463 2.073-8.15 5.005-11.054 8.796-2.904 3.79-5.649 8.594-8.234 14.402h-.083l6.861-27.599h86.427l-3.957 27.599h.014zM843.597 111.738c.943 2.399 2.059 4.076 3.348 5.046 1.289.97 2.772 1.615 4.436 1.934v.083h-40.428v-.083c2.8-.374 5.004-1.213 6.619-2.502 1.615-1.289 2.689-3.147 3.23-5.566.534-2.419.589-5.517.159-9.28l-9.439-80.377h.159l-40.192 76.828c-2.744 5.219-4.401 9.239-4.962 12.067-.562 2.828-.118 4.872 1.331 6.134 1.455 1.261 3.818 2.162 7.104 2.703v.083h-25.665v-.083c2.148-.43 4.103-1.199 5.85-2.301 1.746-1.102 3.659-3.091 5.731-5.975 2.073-2.876 4.692-7.111 7.867-12.71l53.187-95.632h6.778l12.67 99.263c.533 4.519 1.275 7.977 2.217 10.368zm-60.97-36.677h44.302l.083 1.13h-44.787l.402-1.13zM867.731 9.329c-.943-2.391-2.059-4.09-3.348-5.08-1.289-.998-2.772-1.63-4.436-1.9v-.083h40.428v.084c-2.8.374-5.004 1.213-6.619 2.502-1.615 1.289-2.689 3.146-3.23 5.565-.541 2.419-.596 5.517-.159 9.28l9.439 80.377h-.159l39.949-76.343c2.8-5.434 4.505-9.592 5.122-12.468.617-2.877.201-4.949-1.248-6.217-1.455-1.262-3.818-2.163-7.104-2.703V2.26h25.665v.083c-2.155.374-4.103 1.143-5.849 2.3-1.747 1.158-3.688 3.189-5.809 6.093-2.127 2.904-4.775 7.263-7.949 13.071l-53.021 95.147h-6.778l-12.67-99.263c-.54-4.52-1.275-7.978-2.218-10.369l-.006.007zM1038.45 29.865h-.08c-.54-6.89-1.6-12.184-3.19-15.9-1.59-3.714-4.36-6.362-8.31-7.949-3.96-1.587-9.73-2.571-17.31-2.946l-13.721-.727-12.025 56.652 16.866-.645c4.79-.159 8.6-.81 11.43-1.933 2.82-1.123 5.08-2.786 6.77-4.963 1.7-2.176 3.22-5.018 4.56-8.51h.09l-7.27 34.376h-.08c0-3.93-.35-7.152-1.05-9.682-.7-2.53-2.16-4.422-4.4-5.69-2.23-1.262-5.63-1.976-10.21-2.135l-16.699-.645-12.586 59.557 15.975-.645c6.134-.326 11.429-1.074 15.9-2.259 4.46-1.185 8.35-2.918 11.66-5.205 3.31-2.287 6.23-5.247 8.76-8.879 2.53-3.631 4.92-8.005 7.18-13.113h.08l-7.99 30.184h-79.649v-.083c2.371-.375 4.221-.915 5.566-1.615 1.344-.7 2.405-1.761 3.188-3.188.776-1.428 1.442-3.459 1.975-6.092l20.176-94.578c.589-2.69.79-4.748.603-6.176-.187-1.427-.818-2.474-1.899-3.146-1.075-.673-2.717-1.2-4.921-1.574v-.083h74.731l-4.12 27.599v-.007zM1129.08 45.522c-2.75 4.089-6.57 7.409-11.46 9.966-4.89 2.558-10.56 4.415-16.99 5.566-6.43 1.157-13.3 1.732-20.62 1.732h-8.79l-9.44 45.03c-.54 2.689-.74 4.747-.6 6.175.13 1.428.74 2.474 1.81 3.147 1.08.672 2.75 1.199 5.01 1.573v.083h-36.56v-.083c2.37-.374 4.22-.915 5.56-1.615 1.35-.7 2.41-1.76 3.19-3.188.78-1.428 1.46-3.459 2.06-6.092l20.09-94.578c.53-2.69.73-4.748.56-6.175-.16-1.428-.78-2.475-1.86-3.147-1.07-.672-2.71-1.199-4.92-1.573V2.26h35.91c13.67 0 23.94 2.53 30.83 7.582 6.89 5.06 10.33 11.942 10.33 20.66 0 5.92-1.38 10.924-4.12 15.013l.01.007zm-21.35-34.82c-4.01-5.136-9.59-7.84-16.74-8.11l-6.78-.242-13 60.36 6.38-.243c7.91-.325 14.55-1.885 19.93-4.678 5.38-2.8 9.43-6.563 12.14-11.297 2.72-4.734 4.08-10.195 4.08-16.384 0-7.798-2-14.271-6.01-19.407zm-22.55 51.606c1.45-.104 2.87-.27 4.27-.485 1.4-.215 2.79-.471 4.16-.77a59.37 59.37 0 004.24-1.088c1.45-.43 2.96-.942 4.52-1.531l12.91 38.25c1.83 5.379 3.41 9.551 4.76 12.511 1.34 2.959 2.63 5.115 3.87 6.459 1.24 1.345 2.59 2.371 4.04 3.064v.083h-23.97l-18.8-56.493zM1159.22 119.078c-4.33-.617-8.31-1.49-11.94-2.62-3.63-1.129-6.61-2.391-8.92-3.791l4.52-28.569h.08c-.11 8.664 1.06 15.602 3.51 20.821 2.45 5.218 5.78 8.982 9.97 11.297 4.19 2.315 8.82 3.472 13.88 3.472 4.58 0 8.73-.873 12.47-2.62 3.74-1.746 6.74-4.332 9-7.748 2.26-3.417 3.39-7.548 3.39-12.386 0-4.837-1-9.239-2.99-13.196-1.99-3.957-5.35-7.811-10.09-11.581l-11.29-8.955c-5.55-4.36-9.78-8.906-12.71-13.64-2.94-4.734-4.4-9.925-4.4-15.573 0-6.89 1.7-12.78 5.12-17.674 3.41-4.893 8.06-8.65 13.96-11.256 5.89-2.606 12.55-3.915 19.97-3.915 7.96 0 14.39.9 19.29 2.703 4.89 1.802 8.82 4.047 11.78 6.736l-4.36 28.084h-.08c-.27-12.316-2.57-21.603-6.9-27.841-4.34-6.238-10.24-9.364-17.72-9.364-7.48 0-13.15 2.003-17.19 6.01-4.03 4.005-6.05 9.349-6.05 16.016 0 4.194.97 8.068 2.91 11.623 1.93 3.549 5.13 7.105 9.6 10.653l11.38 8.955c6.19 4.844 10.68 9.793 13.48 14.845 2.8 5.06 4.2 10.494 4.2 16.302s-1.15 10.507-3.44 14.728c-2.28 4.221-5.36 7.79-9.23 10.694-3.88 2.904-8.25 5.087-13.12 6.536-4.87 1.455-9.88 2.176-15.05 2.176-4.36 0-8.71-.312-13.03-.929v.007zM1315.58 29.865h-.09c-.54-6.89-1.6-12.184-3.18-15.9-1.59-3.714-4.36-6.362-8.31-7.949-3.96-1.587-9.73-2.571-17.32-2.946l-13.71-.727-12.03 56.652 16.87-.645c4.79-.159 8.6-.81 11.42-1.933 2.83-1.123 5.09-2.786 6.78-4.963 1.69-2.176 3.22-5.018 4.56-8.51h.09l-7.27 34.376h-.08c0-3.93-.35-7.152-1.05-9.682-.7-2.53-2.16-4.422-4.4-5.69-2.23-1.262-5.63-1.976-10.21-2.135l-16.7-.645-12.59 59.557 15.98-.645c6.13-.326 11.43-1.074 15.9-2.259 4.46-1.185 8.35-2.918 11.66-5.205 3.31-2.287 6.23-5.247 8.76-8.879 2.53-3.631 4.92-8.005 7.18-13.113h.08l-7.99 30.184h-79.65v-.083c2.37-.375 4.22-.915 5.56-1.615 1.35-.7 2.41-1.761 3.19-3.188.78-1.428 1.44-3.459 1.98-6.092l20.17-94.578c.59-2.69.79-4.748.61-6.176-.19-1.427-.82-2.474-1.9-3.146-1.08-.673-2.72-1.2-4.92-1.574v-.083h74.72l-4.11 27.599v-.007z" fill="#fff"/></svg>