<svg width="1920" height="973" fill="none" xmlns="http://www.w3.org/2000/svg"><path d="M559.921 518.835v-7.48h-8.413v-18.286h-9.101v46.407h9.101v-20.641h8.413zm-23.513-5.471c0-9.42-7.516-16.208-17.17-16.208-9.722 0-17.238 6.788-17.238 16.208 0 9.35 7.516 16.207 17.238 16.207 9.654 0 17.17-6.857 17.17-16.207zm-25.513 0c0-5.264 3.586-8.312 8.343-8.312 4.689 0 8.344 3.048 8.344 8.312 0 5.264-3.655 8.311-8.344 8.311-4.757 0-8.343-3.047-8.343-8.311zm42.889 35.117h-34.132v-13.784h-9.102v21.056h43.234v-7.272zM592.461 516.688h15.101v14.615h9.102v-38.234h-9.102v5.68h-15.101v6.926h15.101v4.087h-15.101v6.926zm7.999 9.974l-.965-7.272c-7.516 1.454-14.136 1.731-23.169 1.939v-25.004h-9.102v32.415h5.172c11.377 0 19.376-.415 28.064-2.078zm-5.241 5.472c-13.514 0-21.789 4.502-21.789 12.468 0 7.757 8.275 12.398 21.789 12.398 13.446 0 21.721-4.641 21.721-12.398 0-7.966-8.275-12.468-21.721-12.468zm0 17.732c-8.481 0-12.687-1.732-12.687-5.264 0-3.533 4.206-5.334 12.687-5.334 8.413 0 12.619 1.801 12.619 5.334 0 3.532-4.206 5.264-12.619 5.264zM675.476 525.554h9.101v-7.55h-9.101v-24.935h-9.102v63.792h9.102v-31.307zm-13.239-23.065h-13.791v-8.312h-9.102v8.312h-14.066v7.273h36.959v-7.273zm-18.273 10.875c-9.24 0-16.135 6.303-16.135 15.168 0 9.074 6.895 15.308 16.135 15.308 9.171 0 15.997-6.234 15.997-15.308 0-8.865-6.826-15.168-15.997-15.168zm0 22.995c-4.413 0-7.447-2.77-7.447-7.757s3.034-7.827 7.447-7.827 7.378 2.978 7.378 7.757c0 4.987-2.965 7.827-7.378 7.827zM742.148 556.861v-63.792h-8.619v63.792h8.619zm-13.032-62.753h-8.481v20.502h-7.93v7.412h7.93v32h8.481v-59.914zM707.947 509v-10.39h-8.757v10.736c0 10.875-3.379 22.303-12.687 27.983l5.447 6.857c5.792-3.532 9.447-9.42 11.653-16.623 2 6.441 5.241 11.844 10.757 15.169l4.965-7.065c-8.62-5.749-11.378-16.347-11.378-26.667zM807.235 549.45v-7.411h-12.757v-15.584c4.758-2.979 7.654-7.55 7.654-13.091 0-10.459-9.998-17.178-23.72-17.178-13.584 0-23.651 6.719-23.651 17.178-.069 5.541 2.689 10.112 7.654 13.091v15.584h-12.687v7.411h57.507zm-28.823-46.06c8.826 0 14.756 3.601 14.756 9.974 0 6.372-5.93 9.974-14.756 9.974s-14.687-3.602-14.687-9.974c0-6.373 5.861-9.974 14.687-9.974zm7.033 38.649h-13.997v-12.191c2.206.416 4.551.624 6.964.624 2.482 0 4.827-.208 7.033-.624v12.191zM813.297 551.874h10.067v-9.835h-10.067v9.835zM896.245 557v-64h-9.102v64h9.102zm-34.132-59.498c-9.585 0-16.687 8.727-16.687 22.719 0 14.06 7.102 22.857 16.687 22.857 9.584 0 16.686-8.797 16.686-22.857 0-13.992-7.102-22.719-16.686-22.719zm0 8.243c4.689 0 7.929 4.987 7.929 14.476s-3.24 14.545-7.929 14.545-7.93-5.056-7.93-14.545 3.241-14.476 7.93-14.476zM960.159 556.861v-63.792h-8.619v63.792h8.619zm-13.032-62.753h-8.482v20.502h-7.929v7.412h7.929v32h8.482v-59.914zM925.958 509v-10.39h-8.757v10.736c0 10.875-3.379 22.303-12.687 27.983l5.447 6.857c5.792-3.532 9.446-9.42 11.653-16.623 2 6.441 5.24 11.844 10.757 15.169l4.964-7.065c-8.619-5.749-11.377-16.347-11.377-26.667zM1022.35 556.861V493h-8.62v63.861h8.62zm-13.17-62.406h-8.48V509.9h-6.139c.345-2.978.552-6.026.552-9.281h-24.686v7.273h15.653c-1.103 12.537-6.758 21.61-19.238 29.368l5.171 6.372c11.86-6.996 18.204-15.931 21.031-26.459h7.656v8.658h-8.828v7.342h8.828v20.918h8.48v-59.636zM1079.51 524.654h9.24v-7.55h-9.24v-24.035h-9.11v63.792h9.11v-32.207zm-32.69-27.152c-9.65 0-16.68 8.727-16.68 22.719 0 14.06 7.03 22.857 16.68 22.857 9.59 0 16.69-8.797 16.69-22.857 0-13.992-7.1-22.719-16.69-22.719zm0 37.264c-4.76 0-7.93-5.056-7.93-14.545s3.17-14.476 7.93-14.476c4.69 0 7.93 4.987 7.93 14.476s-3.24 14.545-7.93 14.545zM1144.45 557v-64h-9.1v64h9.1zm-34.13-59.498c-9.58 0-16.68 8.727-16.68 22.719 0 14.06 7.1 22.857 16.68 22.857 9.59 0 16.69-8.797 16.69-22.857 0-13.992-7.1-22.719-16.69-22.719zm0 8.243c4.69 0 7.93 4.987 7.93 14.476s-3.24 14.545-7.93 14.545c-4.69 0-7.93-5.056-7.93-14.545s3.24-14.476 7.93-14.476zM1211.27 526.108v-7.203h-24.14v-4.018h17.45v-7.134h-34.48v-5.402h33.99v-7.135h-43.02v19.671h16.96v4.018h-24.13v7.203h57.37zm-5.31 23.411h-36.41v-3.671h34.75v-16.415h-43.85v6.719h34.89v3.393h-34.82v16.832h45.44v-6.858zM1268.7 527.355v-34.286h-9.17v34.286h9.17zm-34.55-31.654c-9.86 0-17.31 6.303-17.31 15.031 0 8.865 7.45 15.099 17.31 15.099s17.24-6.234 17.24-15.099c0-8.728-7.38-15.031-17.24-15.031zm0 7.55c4.97 0 8.35 2.771 8.35 7.481 0 4.779-3.38 7.549-8.35 7.549-4.96 0-8.41-2.77-8.41-7.549 0-4.71 3.45-7.481 8.41-7.481zm1.38 32.831v-5.956h-9.03V556.1h42.2v-25.974h-9.04v5.956h-24.13zm24.13 12.814h-24.13v-5.818h24.13v5.818zM1331.03 556.792V493h-9.11v63.792h9.11zm-40.69-23.48v-34.217h-9.03v42.044h5.65c9.73 0 20.21-.693 31.03-2.979l-.96-7.619c-9.45 1.87-18.34 2.563-26.69 2.771zM1389.77 524.169h9.24v-7.55h-9.24v-23.55h-9.1V557h9.1v-32.831zm-38.2 9.905v-27.706h20.55v-7.411h-29.65v42.736h5.44c11.04 0 19.72-.416 29.31-2.078l-.9-7.55c-8.2 1.385-15.72 1.939-24.75 2.009zM1408.59 536.221h6.62l1.45-28.329.34-9.628h-10.21l.35 9.628 1.45 28.329zm-1.66 15.653H1417v-9.835h-10.07v9.835zM777.308 439.04h30.288v-4.944h-24v-3.744h23.664v-4.944h-29.952v13.632zm18.144 10.08v-2.832h16.8v-4.944h-39.936v4.944h16.8v2.832h-12.24v4.656h24.288v2.352h-24.24v11.664h31.632v-4.752h-25.344v-2.544h24.192V449.12h-11.952zm27.884 8.784h-7.008l-1.968 10.032h5.424l3.552-10.032zm44.577-3.984h6v-30h-6v30zm-14.064-15.888h5.232v11.712h5.904v-24.96h-5.904v8.112h-5.232v5.136zm.576 10.944l3.36-4.752c-5.472-2.544-7.632-7.488-7.632-12.528v-5.04h-6.144v5.04c0 5.136-2.352 10.32-8.4 13.152l3.36 4.848c3.888-1.68 6.528-4.704 8.112-8.352 1.488 3.312 3.696 6.048 7.344 7.632zm7.728 3.696v-1.008h-6.288v1.008c0 4.464-4.512 9.264-14.112 10.416l2.352 4.896c7.152-1.008 12.24-3.936 14.928-7.968 2.688 4.032 7.776 6.96 14.928 7.968l2.304-4.896c-9.552-1.152-14.112-5.952-14.112-10.416zm21.788 1.152h4.608l1.008-19.632.24-6.672h-7.104l.24 6.672 1.008 19.632zm-1.152 10.848h7.008v-6.816h-7.008v6.816zm57.969-18.336h6.432v-5.232h-6.432v-17.136h-6.336v44.16h6.336v-21.792zm-18.624-8.64v-1.536h8.784v-5.04h-8.736v-6.144h-6.336v6.144h-8.976v5.04h8.976v1.536c0 6.672-3.312 14.112-10.464 17.424l3.408 4.848c4.992-2.256 8.352-6.528 10.272-11.952 1.872 4.992 4.944 9.024 9.744 11.184l3.36-4.8c-6.912-3.312-10.032-10.464-10.032-16.704zm58.076-13.776v25.68h-8.304v4.32h8.304v3.504h6.336V423.92h-6.336zm-16.8 17.28c6.384 0 10.992-3.168 10.992-7.872 0-4.752-4.608-7.92-10.992-7.92-6.48 0-11.04 3.168-11.04 7.92 0 4.704 4.56 7.872 11.04 7.872zm0-11.184c2.928 0 4.992 1.152 4.992 3.312s-2.064 3.264-4.992 3.264c-3.072 0-5.04-1.104-5.04-3.264 0-2.16 1.968-3.312 5.04-3.312zm24.096 37.344v-5.04h-26.448v-6.048h6.096v-8.352c3.648-.24 7.104-.624 10.56-1.248l-.432-4.512c-9.312 1.152-20.064 1.344-28.128 1.344l.816 5.04c3.312 0 7.008-.048 10.896-.24v5.904h-6.144v13.152h32.784zm25.004-27.744c10.51 0 16.03-2.544 16.03-7.536 0-4.848-5.52-7.536-16.03-7.536-10.42 0-15.984 2.688-15.984 7.536 0 4.992 5.564 7.536 15.984 7.536zm0-10.416c6.58 0 9.46.912 9.46 2.88 0 2.064-2.88 2.928-9.46 2.928-6.38 0-9.41-.864-9.41-2.928 0-1.968 3.03-2.88 9.41-2.88zm19.97 17.472v-4.944h-39.938v4.944h39.938zm-3.7 16.368h-25.34v-2.496h24.19v-11.376h-30.528v4.656h24.288v2.352h-24.24v11.616h31.63v-4.752zm53.83-13.92v-25.248h-6.33v7.392h-10.71v5.136h10.71v12.72h6.33zm-10.75-3.312l-.72-5.232c-5.81 1.152-11.18 1.584-16.8 1.728v-16.08h-6.29v21.36h3.7c6.58 0 13.15-.384 20.11-1.776zm10.75 5.232h-29.32v16.56h29.32v-16.56zm-6.19 11.616h-16.94v-6.672h16.94v6.672zm49.53 5.568v-44.352h-6.33v15.936h-7.39c-.92-7.92-5.33-12.816-11.28-12.816-6.58 0-11.43 6.048-11.43 15.744 0 9.744 4.85 15.84 11.43 15.84 6.14 0 10.7-5.184 11.32-13.632h7.35v23.28h6.33zm-25-15.408c-3.27 0-5.38-3.504-5.38-10.08 0-6.576 2.11-10.032 5.38-10.032 3.26 0 5.42 3.456 5.42 10.032 0 6.576-2.16 10.08-5.42 10.08zm35.61 1.008h4.61l1-19.632.24-6.672h-7.1l.24 6.672 1.01 19.632zm-1.15 10.848h7v-6.816h-7v6.816z" fill="#fff"/></svg>