<svg width="24" height="25" fill="none" xmlns="http://www.w3.org/2000/svg"><path d="M5.956 21.539H.18c-.156 0-.156 0-.173-.15-.006-.069-.006-.132-.006-.202V5.77c0-.415-.012-.83.023-1.244.017-.231.11-.462.184-.686C.601 2.65 1 1.464 1.391.277 1.47.04 1.523 0 1.777 0H23.593c.104 0 .155.052.155.156 0 4.755 0 9.51.006 14.27 0 .283-.086.49-.288.692-2.064 2.052-4.121 4.115-6.179 6.173-.104.104-.219.202-.374.23a1.206 1.206 0 01-.145.012c-1.256 0-2.507 0-3.763-.006a.98.98 0 00-.744.306c-.795.813-1.608 1.608-2.403 2.415a.753.753 0 01-.57.242c-1.073-.006-2.14 0-3.211 0-.098 0-.144-.029-.144-.144v-2.663-.15l.023.006zM21.57 2.196H3.817c-.096 0-.144.05-.144.15v15.36c0 .108.056.162.167.162h5.055v2.968c.08-.075.139-.127.19-.179.853-.847 1.706-1.7 2.548-2.553a.744.744 0 01.594-.242h5.314a.688.688 0 00.513-.22c1.083-1.083 2.167-2.166 3.262-3.244a.823.823 0 00.26-.634 869.835 869.835 0 01-.012-3.885V2.207l.006-.011z" fill="#F90"/><path d="M9.679 6.732h2.178v6.57H9.68v-6.57zM15.645 6.732h2.132v6.588h-2.133V6.732z" fill="#F90"/></svg>