<svg width="915" height="81" fill="none" xmlns="http://www.w3.org/2000/svg"><path d="M22.283 73.031L37.488 3.617h9.07l4.929 5.925-16.201 70.41H25.272l-2.989-6.92zM18.246 3.617L31.09 73.555l-3.303 6.396H16.201L0 3.617h18.246zm41.577 69.571l12.741-69.57h18.193l-16.2 76.334H63.021l-3.199-6.764zm-6.71-69.57L68.683 73.45l-3.146 6.5H55.524L38.956 9.438l5.138-5.82h9.018zM125.888 19.66l-18.613 60.291H87.509l28.05-76.334h12.531l-2.202 16.043zm15.415 60.291l-18.666-60.29-2.412-16.044h12.689l28.207 76.334h-19.818zm-.734-28.467V65.69h-39.166V51.483h39.166zM182.987 3.617v76.334h-18.403V3.617h18.403zm45.562 0L198.978 42.31l-17.302 18.926-3.355-16.882 11.063-16.776 16.463-23.96h22.702zM206.79 79.951L187.077 45.56l14.313-10.538 27.159 44.93H206.79zM308.248 65.796v14.155h-40.686V65.796h40.686zM274.116 3.617v76.334h-18.404V3.617h18.404zm28.889 30.303v13.684h-35.443V33.92h35.443zm5.4-30.303v14.208h-40.843V3.617h40.843zM330.166 35.336V79.95h-17.669V23.225h16.568l1.101 12.11zm-2.097 14.313l-4.142.104c0-4.334.524-8.196 1.573-11.586 1.048-3.425 2.534-6.326 4.456-8.703 1.923-2.377 4.212-4.177 6.869-5.4 2.691-1.258 5.68-1.887 8.965-1.887 2.622 0 5.016.384 7.183 1.153 2.202.769 4.09 2.01 5.663 3.722 1.608 1.713 2.831 3.985 3.67 6.816.874 2.796 1.311 6.256 1.311 10.38v35.703h-17.774V44.196c0-2.272-.315-4.002-.944-5.19-.629-1.224-1.538-2.062-2.726-2.517-1.189-.454-2.639-.681-4.352-.681-1.818 0-3.356.35-4.614 1.048a8.166 8.166 0 00-3.041 2.936c-.734 1.224-1.276 2.674-1.625 4.352-.315 1.677-.472 3.512-.472 5.505zM401.159 23.225v12.268h-34.185V23.225h34.185zM374.157 9.122h17.669v52.323c0 1.503.175 2.673.525 3.512.349.804.944 1.38 1.782 1.73.874.315 2.028.472 3.461.472 1.014 0 1.852-.017 2.517-.052.664-.07 1.293-.157 1.887-.262V79.48c-1.503.489-3.076.856-4.719 1.1-1.643.28-3.39.42-5.243.42-3.775 0-7.008-.594-9.699-1.782-2.657-1.189-4.684-3.059-6.082-5.61-1.399-2.552-2.098-5.872-2.098-9.961V9.122zM433.511 81c-4.614 0-8.739-.716-12.374-2.15-3.635-1.468-6.711-3.477-9.228-6.029a26.774 26.774 0 01-5.714-8.807c-1.294-3.32-1.94-6.833-1.94-10.538v-1.992c0-4.16.576-8.004 1.73-11.535 1.153-3.564 2.866-6.675 5.138-9.331 2.272-2.657 5.121-4.719 8.546-6.187 3.426-1.503 7.41-2.254 11.954-2.254 4.02 0 7.62.646 10.801 1.94 3.181 1.293 5.872 3.145 8.074 5.557 2.237 2.411 3.933 5.33 5.086 8.755 1.189 3.425 1.783 7.27 1.783 11.534v7.183h-46.349V46.083h29.099V44.72c.035-1.887-.297-3.495-.996-4.823a6.862 6.862 0 00-2.936-3.04c-1.293-.7-2.866-1.05-4.719-1.05-1.922 0-3.513.42-4.771 1.259-1.223.839-2.185 1.992-2.884 3.46-.664 1.433-1.136 3.093-1.415 4.98a40.73 40.73 0 00-.42 5.977v1.993c0 2.097.28 4.002.839 5.714.594 1.713 1.433 3.18 2.517 4.404a11.869 11.869 0 003.984 2.779c1.573.664 3.356.996 5.348.996 2.412 0 4.789-.454 7.131-1.363 2.342-.909 4.352-2.412 6.029-4.509l8.022 9.542c-1.153 1.643-2.796 3.233-4.928 4.77-2.097 1.539-4.614 2.797-7.55 3.776-2.936.943-6.222 1.415-9.857 1.415zM480.229 37.276V79.95H462.56V23.225h16.515l1.154 14.05zm16.777-14.47l-.314 16.41a259.01 259.01 0 00-2.831-.263 35.01 35.01 0 00-2.989-.157c-2.062 0-3.845.245-5.348.734-1.468.454-2.691 1.154-3.67 2.097-.944.909-1.643 2.062-2.097 3.46-.42 1.398-.612 3.024-.577 4.876l-3.198-2.097c0-3.81.367-7.27 1.101-10.38.769-3.146 1.852-5.855 3.251-8.127 1.398-2.307 3.093-4.072 5.085-5.295 1.993-1.258 4.23-1.887 6.711-1.887.874 0 1.731.052 2.57.157a12.75 12.75 0 012.306.472zM533.448 23.225v12.268h-34.185V23.225h34.185zM506.446 9.122h17.669v52.323c0 1.503.175 2.673.524 3.512.35.804.944 1.38 1.783 1.73.874.315 2.027.472 3.461.472a49.54 49.54 0 002.516-.052c.664-.07 1.294-.157 1.888-.262V79.48c-1.503.489-3.076.856-4.719 1.1-1.643.28-3.391.42-5.243.42-3.775 0-7.008-.594-9.7-1.782-2.656-1.189-4.684-3.059-6.082-5.61-1.398-2.552-2.097-5.872-2.097-9.961V9.122zM567.792 65.691V42.31c0-1.608-.227-2.989-.682-4.142-.454-1.153-1.171-2.045-2.149-2.674-.979-.664-2.29-.996-3.933-.996-1.328 0-2.464.227-3.408.682a4.688 4.688 0 00-2.149 2.044c-.49.909-.734 2.062-.734 3.46h-17.669c0-2.62.576-5.05 1.73-7.287 1.188-2.272 2.866-4.247 5.033-5.924 2.202-1.678 4.824-2.971 7.865-3.88 3.076-.944 6.501-1.415 10.276-1.415 4.509 0 8.529.751 12.059 2.254 3.565 1.503 6.379 3.757 8.442 6.763 2.062 2.971 3.093 6.71 3.093 11.22v23.225c0 3.705.21 6.518.629 8.44.42 1.888 1.014 3.548 1.783 4.981v.891h-17.722c-.839-1.747-1.468-3.88-1.887-6.396a52.644 52.644 0 01-.577-7.864zm2.15-20.394l.105 9.437h-7.813c-1.643 0-3.041.227-4.194.681-1.119.455-2.027 1.084-2.727 1.888a7.469 7.469 0 00-1.468 2.621 11.23 11.23 0 00-.419 3.093c0 1.049.245 1.993.734 2.831a5.463 5.463 0 002.097 1.888c.874.454 1.853.681 2.936.681 1.958 0 3.618-.367 4.981-1.1 1.398-.77 2.464-1.696 3.198-2.78.735-1.083 1.102-2.096 1.102-3.04l3.879 7.235a48.326 48.326 0 01-2.411 4.247c-.874 1.433-1.975 2.76-3.304 3.984-1.293 1.189-2.883 2.167-4.771 2.936-1.887.734-4.177 1.101-6.868 1.101-3.495 0-6.711-.716-9.647-2.15-2.901-1.432-5.226-3.425-6.974-5.976-1.747-2.587-2.621-5.557-2.621-8.913 0-2.936.524-5.557 1.573-7.864 1.083-2.307 2.709-4.264 4.876-5.872 2.167-1.608 4.928-2.83 8.284-3.67 3.355-.838 7.305-1.258 11.849-1.258h7.603zM611.888 23.225v56.726h-17.721V23.225h17.721zm-18.77-14.627c0-2.516.909-4.579 2.726-6.186C597.662.804 600.021 0 602.923 0c2.901 0 5.26.804 7.078 2.412 1.817 1.607 2.726 3.67 2.726 6.186 0 2.517-.909 4.579-2.726 6.186-1.818 1.608-4.177 2.412-7.078 2.412-2.902 0-5.261-.804-7.079-2.412-1.817-1.607-2.726-3.67-2.726-6.186zM638.001 35.336V79.95h-17.669V23.225H636.9l1.101 12.11zm-2.097 14.313l-4.143.104c0-4.334.525-8.196 1.573-11.586 1.049-3.425 2.535-6.326 4.457-8.703 1.923-2.377 4.212-4.177 6.868-5.4 2.692-1.258 5.68-1.887 8.966-1.887 2.622 0 5.016.384 7.183 1.153 2.202.769 4.09 2.01 5.663 3.722 1.607 1.713 2.831 3.985 3.67 6.816.874 2.796 1.31 6.256 1.31 10.38v35.703h-17.774V44.196c0-2.272-.314-4.002-.943-5.19-.629-1.224-1.538-2.062-2.727-2.517-1.188-.454-2.639-.681-4.351-.681-1.818 0-3.356.35-4.614 1.048a8.159 8.159 0 00-3.041 2.936c-.734 1.224-1.276 2.674-1.626 4.352-.314 1.677-.471 3.512-.471 5.505zM696.935 35.231v44.72h-17.669V23.225h16.568l1.101 12.006zm-2.15 14.417l-4.037.105c0-3.984.472-7.654 1.416-11.01.943-3.355 2.342-6.273 4.194-8.755 1.853-2.481 4.125-4.404 6.816-5.767 2.726-1.363 5.872-2.044 9.438-2.044 2.481 0 4.736.384 6.763 1.153a12.997 12.997 0 015.243 3.513c1.468 1.573 2.587 3.635 3.356 6.186.804 2.517 1.206 5.54 1.206 9.07v37.852h-17.669V44.353c0-2.411-.28-4.229-.839-5.452-.525-1.223-1.294-2.045-2.307-2.464-1.014-.42-2.255-.63-3.723-.63-1.538 0-2.918.35-4.142 1.05-1.223.698-2.272 1.677-3.146 2.935-.839 1.224-1.485 2.674-1.94 4.352-.419 1.677-.629 3.512-.629 5.505zm32.402 0l-4.928.105c0-3.984.437-7.654 1.311-11.01.908-3.355 2.254-6.273 4.037-8.755 1.817-2.481 4.072-4.404 6.763-5.767 2.692-1.363 5.82-2.044 9.385-2.044 2.587 0 4.964.384 7.131 1.153a13.763 13.763 0 015.61 3.722c1.573 1.713 2.796 3.985 3.67 6.816.874 2.796 1.311 6.256 1.311 10.38v35.703h-17.722V44.25c0-2.342-.279-4.107-.838-5.296-.525-1.223-1.294-2.044-2.307-2.464-1.014-.454-2.22-.681-3.618-.681-1.678 0-3.129.35-4.352 1.048-1.223.7-2.254 1.678-3.093 2.936-.804 1.224-1.399 2.674-1.783 4.352-.384 1.677-.577 3.512-.577 5.505zM796.922 81c-4.614 0-8.738-.716-12.374-2.15-3.635-1.468-6.711-3.477-9.227-6.029a26.761 26.761 0 01-5.715-8.807c-1.294-3.32-1.94-6.833-1.94-10.538v-1.992c0-4.16.577-8.004 1.73-11.535 1.153-3.564 2.866-6.675 5.138-9.331 2.272-2.657 5.121-4.719 8.546-6.187 3.426-1.503 7.411-2.254 11.955-2.254 4.019 0 7.619.646 10.8 1.94 3.181 1.293 5.873 3.145 8.075 5.557 2.237 2.411 3.932 5.33 5.085 8.755 1.189 3.425 1.783 7.27 1.783 11.534v7.183h-46.349V46.083h29.099V44.72c.035-1.887-.297-3.495-.996-4.823a6.862 6.862 0 00-2.936-3.04c-1.293-.7-2.866-1.05-4.719-1.05-1.922 0-3.513.42-4.771 1.259-1.223.839-2.184 1.992-2.884 3.46-.664 1.433-1.136 3.093-1.415 4.98a40.73 40.73 0 00-.42 5.977v1.993c0 2.097.28 4.002.839 5.714.594 1.713 1.433 3.18 2.517 4.404a11.863 11.863 0 003.985 2.779c1.573.664 3.355.996 5.348.996 2.411 0 4.788-.454 7.13-1.363 2.342-.909 4.352-2.412 6.03-4.509l8.022 9.542c-1.154 1.643-2.797 3.233-4.929 4.77-2.097 1.539-4.614 2.797-7.55 3.776-2.936.943-6.222 1.415-9.857 1.415zM843.168 35.336V79.95h-17.669V23.225h16.568l1.101 12.11zm-2.097 14.313l-4.142.104c0-4.334.524-8.196 1.573-11.586 1.048-3.425 2.534-6.326 4.456-8.703 1.923-2.377 4.212-4.177 6.869-5.4 2.691-1.258 5.68-1.887 8.965-1.887 2.622 0 5.016.384 7.183 1.153 2.202.769 4.09 2.01 5.663 3.722 1.608 1.713 2.831 3.985 3.67 6.816.874 2.796 1.311 6.256 1.311 10.38v35.703h-17.774V44.196c0-2.272-.315-4.002-.944-5.19-.629-1.224-1.538-2.062-2.726-2.517-1.189-.454-2.639-.681-4.352-.681-1.818 0-3.356.35-4.614 1.048a8.166 8.166 0 00-3.041 2.936c-.734 1.224-1.276 2.674-1.625 4.352-.315 1.677-.472 3.512-.472 5.505zM914.161 23.225v12.268h-34.185V23.225h34.185zM887.159 9.122h17.669v52.323c0 1.503.175 2.673.525 3.512.349.804.944 1.38 1.782 1.73.874.315 2.028.472 3.461.472a49.54 49.54 0 002.516-.052c.665-.07 1.294-.157 1.888-.262V79.48c-1.503.489-3.076.856-4.719 1.1-1.643.28-3.39.42-5.243.42-3.775 0-7.008-.594-9.699-1.782-2.657-1.189-4.684-3.059-6.082-5.61-1.399-2.552-2.098-5.872-2.098-9.961V9.122z" fill="#fff"/></svg>