<svg width="32" height="32" viewBox="0 0 32 32" fill="none" xmlns="http://www.w3.org/2000/svg">
<path d="M11.888 20.5184C11.8474 20.58 11.8135 20.6484 11.7627 20.6997C10.6568 21.8299 9.54743 22.9567 8.4432 24.0869C8.06383 24.475 7.62518 24.6871 7.07984 24.5657C6.36344 24.4066 5.9756 23.7535 6.07552 22.9105C6.31093 20.9031 6.54296 18.8958 6.77668 16.8867C6.82071 16.514 6.86475 16.1429 6.91386 15.7343C6.80886 15.7838 6.73603 15.8146 6.66659 15.8505C5.14234 16.5994 3.61639 17.3449 2.09383 18.0973C1.74156 18.2717 1.38082 18.3709 0.991287 18.2751C0.222385 18.0853 -0.197631 17.2902 0.0919768 16.5003C0.513687 15.353 0.96927 14.2193 1.41469 13.0806C2.45457 10.42 3.49614 7.7595 4.53433 5.09725C4.65288 4.79119 4.79007 4.50222 5.05427 4.29191C5.50985 3.92771 6.13649 3.90036 6.60732 4.23207C7.09508 4.57404 7.30509 5.18104 7.08492 5.78291C6.74281 6.72333 6.36852 7.65349 6.00439 8.58536C5.29307 10.4098 4.57837 12.2342 3.86535 14.0586C3.83826 14.127 3.81454 14.1937 3.77559 14.298C3.87382 14.2569 3.94326 14.2313 4.00931 14.1971C5.25073 13.5867 6.49384 12.978 7.73526 12.3658C8.14681 12.1624 8.56852 12.0854 9.00548 12.2718C9.58808 12.5214 9.876 13.1113 9.79132 13.8261C9.58469 15.5701 9.38485 17.3142 9.18331 19.0582C9.16468 19.2172 9.14774 19.378 9.12234 19.5883C9.20702 19.513 9.25613 19.4754 9.30017 19.431C9.92342 18.7966 10.5433 18.1571 11.1716 17.5279C11.28 17.4202 11.2986 17.3227 11.2681 17.1757C10.8701 15.2487 10.4721 13.3234 10.0928 11.3929C9.981 10.8287 10.1385 10.3294 10.6229 9.98744C11.1157 9.64034 11.6391 9.65914 12.1268 9.9806C13.2531 10.7227 14.3658 11.4887 15.4836 12.2462C15.6529 12.3607 15.8223 12.4736 16.0408 12.6206C16.0882 12.5488 16.1254 12.4736 16.1813 12.4171C17.0247 11.5554 17.8716 10.697 18.7133 9.83355C19.0418 9.49842 19.4161 9.27101 19.8988 9.31546C20.4238 9.36334 20.8066 9.63863 21.0014 10.1379C21.2029 10.6543 21.103 11.1399 20.7355 11.5383C20.1461 12.1743 19.5296 12.7865 18.9216 13.4054C18.6947 13.6363 18.4575 13.8551 18.2069 14.0979C18.8894 14.5613 19.5364 15.0024 20.2037 15.4556C20.2409 15.3735 20.2731 15.3017 20.3036 15.2298C21.2825 12.8703 22.2648 10.5107 23.2403 8.14934C23.4181 7.72017 23.6451 7.34058 24.0973 7.16618C24.5901 6.97638 25.0542 7.0482 25.4454 7.41069C25.8587 7.79198 25.9857 8.281 25.8011 8.80422C25.569 9.46251 25.2862 10.1037 25.0186 10.75C24.4614 12.0974 23.9025 13.4431 23.3436 14.7904C23.3182 14.8503 23.2979 14.9135 23.2657 14.999C23.4029 14.999 23.5215 15.0041 23.64 14.999C25.1168 14.9306 26.5937 14.8605 28.0688 14.7887C28.8513 14.7511 29.6337 14.7152 30.4145 14.6741C31.0225 14.6417 31.5373 14.8126 31.8422 15.382C32.2978 16.2318 31.7169 17.2594 30.7413 17.3159C29.4931 17.3894 28.2416 17.439 26.9917 17.4971C25.9399 17.5467 24.8865 17.5929 23.8348 17.6425C23.7365 17.6476 23.6366 17.6613 23.4774 17.6749C23.6807 17.8151 23.8365 17.9212 23.9906 18.0272C24.4682 18.3555 24.9593 18.6649 25.4217 19.0155C26.1567 19.5729 26.15 20.633 25.4132 21.1562C24.9322 21.4982 24.414 21.4896 23.9279 21.1767C23.115 20.6518 22.319 20.0978 21.5179 19.5541C19.8548 18.4256 18.1933 17.2936 16.5302 16.1651C16.4709 16.1241 16.4083 16.0882 16.3558 16.0557C16.0374 16.3686 15.7257 16.6678 15.4209 16.9739C15.0415 17.3535 14.6638 17.7348 14.298 18.1281C14.2354 18.1947 14.1947 18.3281 14.2133 18.417C14.7248 20.9442 15.2431 23.4713 15.7613 25.9968C15.9256 26.7987 15.5581 27.4912 14.8637 27.6896C14.1439 27.8947 13.4106 27.4724 13.231 26.7064C13.0193 25.8036 12.8449 24.8905 12.6586 23.9809C12.4317 22.8763 12.2098 21.7718 11.9845 20.6689C11.9778 20.633 11.9625 20.5988 11.9507 20.5646L11.8897 20.5184H11.888ZM14.105 14.522C13.8408 14.3424 13.5918 14.1714 13.3005 13.9731C13.3835 14.3732 13.4546 14.7237 13.5257 15.0623C13.7188 14.8828 13.9034 14.7101 14.1066 14.522H14.105Z" fill="url(#paint0_linear_441_49)"/>
<defs>
<linearGradient id="paint0_linear_441_49" x1="0.00100884" y1="4.00101" x2="32.0002" y2="27.7423" gradientUnits="userSpaceOnUse">
<stop stop-color="#BCE9BC"/>
<stop offset="1" stop-color="#46BFA6"/>
</linearGradient>
</defs>
</svg>
