<svg width="90" height="44" fill="none" xmlns="http://www.w3.org/2000/svg"><path d="M33.492 37.661h2.071v-.93h-2.071v-1.218h2.265v-.95H32.4v5.425h3.438v-.95h-2.346v-1.377zM39.655 37.697l-2.57-3.135h-.746v5.427h1.078v-3.394l2.748 3.394h.568v-5.426h-1.078v3.134zM41.171 35.513h1.483v4.476h1.099v-4.476h1.474v-.95h-4.056v.95zM46.759 37.661h2.07v-.93h-2.07v-1.218h2.265v-.95h-3.355v5.425h3.436v-.95h-2.346v-1.377zM53.381 37.215c.176-.272.266-.579.266-.912a1.757 1.757 0 00-1.063-1.6 1.782 1.782 0 00-.719-.143h-2.256v5.426H50.7v-1.949h1.03l1.095 1.949h1.14l-1.227-2.172a1.83 1.83 0 00.645-.6h-.003zm-2.683-1.717h1.122c.248 0 .43.072.555.215.129.146.191.346.191.59s-.065.444-.19.587c-.126.143-.308.211-.556.211h-1.122v-1.606.003zM58.076 34.563H54.02v.95h1.483v4.476h1.099v-4.476h1.474v-.95zM60.532 34.563h-.817l-2.08 5.425h1.107l.018-.047c.035-.093.068-.188.098-.283.03-.096.06-.191.096-.283.035-.093.068-.188.098-.286.024-.078.048-.155.078-.227h1.934l.408 1.127h1.11l-2.029-5.379-.018-.047h-.003zm.194 3.349h-1.241l.62-1.66.621 1.66zM64.096 34.563h-1.078v5.425h1.078v-5.425zM68.212 37.697l-2.57-3.135h-.746v5.427h1.08v-3.394l2.75 3.394h.563v-5.426h-1.077v3.134zM72.802 37.503l-1.779-2.905-.024-.035h-.943v5.425h1.078v-3.337l1.665 2.566 1.668-2.566v3.337h1.078v-5.425h-.931l-1.812 2.94zM77.408 37.661h2.071v-.93h-2.071v-1.218h2.265v-.95h-3.358v5.425h3.439v-.95h-2.346v-1.377zM83.568 37.697L81 34.562h-.746v5.427h1.077v-3.394l2.75 3.394h.566v-5.426h-1.08v3.134zM85.087 34.563v.95h1.483v4.476h1.099v-4.476h1.474v-.95h-4.056z" fill="#fff"/><path d="M20.95 29.214c-.072.108-.131.227-.22.316-1.95 1.97-3.905 3.933-5.85 5.903-.67.676-1.442 1.046-2.403.834-1.263-.277-1.946-1.415-1.77-2.884.415-3.498.823-6.996 1.235-10.497l.242-2.009c-.185.087-.313.14-.436.203-2.686 1.305-5.375 2.604-8.058 3.915-.62.304-1.257.477-1.943.31-1.355-.33-2.095-1.716-1.585-3.093.743-2 1.546-3.975 2.331-5.96C4.326 11.617 6.161 6.98 7.991 2.342c.209-.534.45-1.037.916-1.404.803-.634 1.907-.682 2.737-.104.86.596 1.23 1.654.842 2.703-.603 1.638-1.263 3.26-1.905 4.883-1.253 3.18-2.513 6.359-3.77 9.538-.047.12-.089.236-.157.417.173-.071.295-.116.412-.175 2.187-1.064 4.378-2.125 6.566-3.192.725-.354 1.468-.488 2.238-.164 1.027.435 1.534 1.463 1.385 2.709-.364 3.04-.716 6.079-1.071 9.118-.033.277-.063.557-.108.923.15-.13.236-.196.314-.274 1.098-1.105 2.19-2.22 3.297-3.316.191-.188.224-.358.17-.614-.7-3.358-1.402-6.713-2.07-10.077-.198-.983.08-1.853.934-2.45.868-.604 1.79-.572 2.65-.011 1.985 1.293 3.946 2.628 5.915 3.948.299.2.597.396.982.652.084-.125.15-.256.248-.354 1.486-1.502 2.979-2.998 4.462-4.503.58-.584 1.239-.98 2.09-.902.925.083 1.599.563 1.942 1.433.355.9.18 1.746-.468 2.44-1.039 1.109-2.125 2.175-3.197 3.254-.4.402-.818.784-1.26 1.207 1.203.807 2.344 1.576 3.52 2.366.065-.143.122-.269.176-.394 1.725-4.112 3.456-8.224 5.175-12.339.313-.747.713-1.409 1.51-1.713.869-.33 1.687-.205 2.376.426.728.665.952 1.517.627 2.429-.41 1.147-.908 2.264-1.38 3.39-.981 2.348-1.966 4.693-2.951 7.042-.045.104-.08.214-.137.363.242 0 .45.009.66 0 2.602-.12 5.204-.241 7.804-.366 1.379-.066 2.758-.129 4.134-.2 1.071-.057 1.979.241 2.516 1.233.803 1.481-.221 3.272-1.94 3.37-2.2.129-4.405.215-6.608.316-1.854.087-3.71.167-5.563.254-.174.009-.35.032-.63.056l.904.614c.842.572 1.707 1.111 2.522 1.722 1.296.972 1.284 2.82-.015 3.73-.847.597-1.76.582-2.617.037-1.433-.915-2.836-1.88-4.247-2.828-2.931-1.967-5.86-3.94-8.79-5.906-.105-.071-.215-.134-.308-.19-.56.545-1.11 1.066-1.647 1.6a78.85 78.85 0 00-1.979 2.01.648.648 0 00-.15.504 4906.55 4906.55 0 002.729 13.21c.29 1.397-.358 2.603-1.582 2.95-1.268.357-2.56-.38-2.877-1.714-.373-1.573-.68-3.165-1.009-4.75-.4-1.925-.79-3.85-1.188-5.771-.012-.063-.039-.122-.06-.182l-.107-.08h-.003zm3.907-10.45c-.466-.312-.904-.61-1.418-.956.146.698.272 1.308.397 1.898l1.024-.941h-.003z" fill="#fff"/></svg>