<svg width="29" height="20" fill="none" xmlns="http://www.w3.org/2000/svg"><path d="M27.966 4.337s-.276-1.943-1.125-2.796C25.765.418 24.562.412 24.01.346 20.06.06 14.128.06 14.128.06h-.01s-5.932 0-9.882.286c-.552.066-1.754.072-2.83 1.195-.85.853-1.12 2.796-1.12 2.796S0 6.622 0 8.901v2.136c0 2.28.281 4.564.281 4.564s.276 1.944 1.12 2.797c1.076 1.123 2.489 1.085 3.117 1.206 2.263.214 9.606.28 9.606.28s5.936-.01 9.886-.291c.552-.066 1.755-.072 2.83-1.195.85-.853 1.126-2.797 1.126-2.797s.281-2.279.281-4.564V8.901c0-2.279-.28-4.564-.28-4.564zm-16.76 9.293V5.708l7.63 3.975-7.63 3.947z" fill="#fff"/></svg>